
<svg width="630" height="630" viewBox="0 0 630 630" xmlns="http://www.w3.org/2000/svg"><g fill="none" fill-rule="evenodd"><path fill="#F7DF1E" d="M0 0h630v630H0z"/><path d="M296.603 415.214c-1.3-.72-2.597-1.944-3.942-2.007-4.067-.198-8.163.205-12.238.06-1.275-.044-2.963-.76-3.685-1.74-2.163-2.942-4.417-5.93-6.02-9.185-.445-.823-.64-1.26-.984-2.043-2.208-4.442-5.64-6.96-10.445-7.863-2.124-.4-4.356-.426-6.524-.34-5.543.216-10.167 2.685-12.755 7.457-.704 1.283-1.29 2.638-1.846 4.007-1.392 3.607-2.173 7.457-2.164 11.45 0 2.395.93 3.728 3.51 3.885 2.652.167 3.916 1.63 3.95 4.26.024 1.913-.12 3.832-.113 5.743.02 2.387.625 2.724 2.775 1.985.77-.237 1.54-.12 2.075-.145.368.068 3.883 2.203 4.163 2.365-.27 1.658 1.66-.747 2.268.775.355.89.183.78.606.976 1.242.577.92-.787 1.522.657 1.32.788 3.077 2.203 4.54 1.557.47-.208.468-.97.61-1.412 3.805-5.806 6.833 1.752 7.123 3.307.235.55.358 1.164.327 1.828-.18 3.824-.186 7.73-1.014 11.434-.95 4.252-.27 8.33.173 12.455.308 2.932 1.11 5.812 1.574 8.734.348 2.18.217 4.474.812 6.565.996 3.476-1.737 8.05-5.163 7.575-4.03-.56-4.68.397-6.353 4.66-1.285 3.27-.254 5.698 1.983 8.15 2.425 2.66 5.756 2.867 8.564.604 3.654-2.948 7.53-5.628 11.414-8.267 1.486-1.01 1.93-2.05 1.835-3.842-.207-3.712-.247-7.465.102-11.155.107-1.155 1.495-2.7 2.63-3.075.86-.287 2.4.815 3.347 1.627.865.738 1.34 1.93 1.992 2.917 1.78 2.7 2.354 6.205 6.225 7.43 1.873.595 1.762 2.744.457 4.398-1.75 2.215-3.576 4.385-5.2 6.687-2.81 4.003-5.388 8.17-8.278 12.112-1.763 2.415-3.9 4.557-5.907 6.79-1.783 1.985-2.64 4.156-2.622 6.933.042 4.83-.136 9.687-.633 14.487-.533 5.13-1.603 10.204-2.266 15.326-.097.727.753 1.58 1.18 2.368.464.85 1.522 1.915 1.304 2.494-.646 1.67-1.46 3.987-2.82 4.54-4.08 1.643-8.457 2.553-12.71 3.79-1.836.537-3.683 1.085-5.46 1.785-1.732.686-2.32 2.153-.842 3.387 1.617 1.344 3.586 2.9 5.537 3.11 8.518.91 17.084 1.398 25.638 1.93.857.05 2.002-.436 2.592-1.068 1.178-1.252.725-5.39-.028-7.027-.962-2.07-1.77-4.303-2.094-6.544-.31-2.183 1.132-2.914 3.152-1.94 3.252 1.56 3.93 1.325 4.287-2.23.77-7.707 1.41-15.425 1.956-23.15.205-2.93.64-5.8 3.05-7.618 5.598-4.217 11.33-8.26 17.123-12.212.865-.59 2.74-.818 3.483-.29 5.162 3.71 10.278 7.514 15.164 11.582 4.344 3.607 8.405 7.57 12.547 11.42 2.743 2.547 5.545 3.307 9.435 2.31 6.157-1.57 12.533-2.292 18.84-3.25 2.8-.422 4.896.61 6.138 3.42.798 1.81 2.148 3.37 3.196 5.075 3.088 5.043 8.334 8.31 10.778 14.016 2.683 6.25 1.47 9.88-4.953 12.44-2.22.883-4.453 2.205-6.127 3.878-2.388 2.394-.992 5.804 2.384 6.234 1.607.205 3.42.368 4.88-.165 7.603-2.764 15.208-5.58 22.647-8.758 3.58-1.534 3.986-4.435 1.583-7.627-2.3-3.056-4.572-6.17-7.195-8.935-3.87-4.085-6.454-8.753-7.822-14.173-1.113-4.404-.98-9.304-5.547-12.286-1.147-.744-.534-2.428 1.11-2.393 3.084.06 6.264.032 9.22.772 4.405 1.108 8.573 3.168 12.985 4.235 5.396 1.3 8.932 4.69 11.912 8.987.78 1.128 1.518 2.29 2.358 3.365 4.385 5.603 10.253 8.453 17.273 8.39 7.57-.072 15.127-.653 22.698-1.004 5.023-.232 7.53 1.816 9.36 6.49 1.754 4.473 4.05 8.74 6.293 13 .406.763 1.962 1.66 2.53 1.422.858-.36 1.658-1.605 1.853-2.6.314-1.583.193-3.27.107-4.91-.363-7.26-.646-14.536-1.242-21.783-.234-2.843-2.837-4.225-5.66-3.46-1.14.308-2.293.7-3.32 1.27-2.87 1.586-5.85 1.575-8.716.354-2.492-1.063-5.03-2.29-7.112-3.98-3.056-2.475-6.316-3.285-10.148-3.16-2.308.08-4.666-.508-6.957-1.007-2.446-.528-3.366-2.25-3.13-4.7.227-2.36.5-4.73.49-7.094 0-.412-.19-.823-.43-1.234.7-2.766 1.15-5.55.862-8.348.105-1.925.253-3.853.53-5.756.55-3.698.78-7.22-2.203-10.2-.607-.606-.545-1.878-.796-2.845-.384-1.493-.477-3.15-1.202-4.457-2.597-4.673-5.5-9.182-8.112-13.85-2.375-4.25-7.32-7.517-5.457-13.462.358-1.138.86-3.01 1.508-3.108 1.194-.176 2.838.38 3.78 1.21 4.322 3.79 8.436 7.812 12.683 11.682 2.132 1.94 2.515 3.166.655 5.312-2.173 2.51-2.213 5.335-1.77 8.256.5 3.298 3.557 4.58 6.35 2.816.613-.386 1.292-.715 1.82-1.207 1.77-1.644 3.765-1.77 6.093-1.537 1.982.2 4.397.2 5.995-.756 5.304-3.155 12.147-2.99 16.146 1.76 3.07 3.646 6.855 5.583 11.038 7.168 1.905.72 2.665 1.99 3.216 3.967 1.027 3.738 2.602 7.323 3.974 10.955.395 1.04 1.17 2.01 1.288 3.068.28 2.43 1.614 3.058 3.78 2.756 3.944-.54 4.472-.262 5.83 3.455.24.658 1.97 6.214 2.17 7.005.447 1.754.75 3.556 1.34 5.256.806 2.302 1.435 4.827 2.854 6.72 2.885 3.847 6.158 7.423 9.482 10.907.806.842 2.54 1.436 3.667 1.216 2.623-.52 4.282.626 6.12 2.157 4.82 4.024 9.69 7.998 14.713 11.767 2.63 1.976 3.668 3.38 2.543 6.292-.904 2.337-2.508 4.397-3.69 6.64-.558 1.065-.85 2.27-1.266 3.413 1.31-.158 2.676-.143 3.91-.535.69-.217 1.127-1.146 1.73-1.697 1.875-1.71 3.592-3.67 5.693-5.034 4.82-3.126 5.276-5.915 1.29-10.085-3.618-3.784-7.268-7.537-10.81-11.39-.772-.837-1.362-1.98-1.653-3.08-.258-.97-.367-2.416.172-3.022.472-.534 1.94-.333 2.946-.238 4.61.43 9.203 1.005 13.81 1.377 1.7.14 2.667-.817 2.75-2.66.152-3.31 2.078-6.355 4.258-6.947 2.605-.706 6.182 1.187 7.99 4.103.71 1.154 1.47 2.394 2.52 3.17.908.67 2.497 1.284 3.355.923.637-.27 1.375-.938 1.848-1.642.094-.12.204-.45.27-.69.09-.324.202-.532.172-.997-.057-.7-.16-1.403-.292-2.108-.02-.054-.02-.114-.04-.216-.287-1.42-.722-2.81-1.41-4.007-1.53-2.656-3.726-4.935-5.708-7.323-2.768-3.346-5.955-3.57-9.02-.662-2.536 2.396-5.426 4.084-8.997 4.044-3.317-.035-4.22-3.09-5.917-5.123-1.307-1.568-2.846-2.376-4.752-2.25-.612-.553-1.283-1.094-2.015-1.644-4.935-5.16-10.016-9.78-14.995-14.502-1.228-1.168-2.236-2.638-3.078-4.12-1.013-1.78-1.344-4.19.47-5.195 1.435-.793 4.174-.822 5.51.06 5.394 3.547 10.426 7.643 15.705 11.376.933.66 2.485.96 3.607.73 2.783-.57 5.066.082 7.21 1.544-.023.344-.038.684-.062 1.03-1.96 0-3.924-.03-5.88.018-.59.014-1.275.117-1.706.452-.2.15-.046 1.026.185 1.445.994 1.798 5.006 2.817 7.498 1.878 2.436-.918 2.194-2.804 1.998-4.984-.02-.112-.04-.204-.054-.31-.044-.223-.06-.273-.077-.464-.524-2.497-2.36-3.325-4.604-4.09-.948-.324-1.977-.635-2.927-1.04-.713.093-1.697-.554-2.225-1.4-.037-.037-.077-.066-.11-.103-.167-.176-.32-.362-.483-.54-1.318-1.33-1.367-1.62-3.44-3.995-1.726-2.114-3.386-4.285-5.023-6.467-.76-1.012-1.544-1.987-2.355-2.92-3.206-2.275-5.395-5.068-8.648-6.475-.032.04-.064.076-.073.135 0-.063-.018-.114-.02-.173-.745-.28-1.52-.525-2.34-.708-6.195-1.384-12.4-2.748-18.538-4.335-1.176-.303-2.475-1.445-2.98-2.54-.344-.74.335-2.75 1.012-3.007 1.396-.535 3.277-.755 4.62-.23 2.25.878 4.293 2.352 6.318 3.725 1.862 1.48 6.718 2.26 6.915 2.254.93-.13.996.13 1.236.01.55-.04 1.106-.1 1.67-.213.594-.116 1.32-.627 1.546-1.15.137-.313-.254-1.153-.644-1.44-.63-.306-.812-.304-1.3-.533-2.047-.813-4.126-1.547-6.174-2.35-2.664-1.04-5.332-2.09-7.924-3.284-.478-.217-1.012-1.363-.833-1.732 1.215-1.027-.165-.396 1.79-1.24 2.65.512 5.246 1.28 7.863 1.962 3.236.842 6.46 1.734 9.72 2.455.233.052.533-.078.827-.277-.7-.86-1.404-1.594-2.212-1.957-.543-1.204-1.324-2.405-2.216-3.614-2.128-1.013-4.403-1.985-6.675-2.174-3.068-.258-6.203.45-9.32.598-1.158.056-2.424-.094-3.475-.54-.635-.273-1.458-1.786-1.34-1.91 2.104-2.156.27-3.558-.668-5.375-3.96-7.7-11.118-10.902-19.63-8.542-5.247 1.455-6.904 4.868-5.038 10.006.512 1.404.563 2.986.737 4.495.244 2.1.02 4.352.684 6.297 1.5 4.354-.56 7.52-5.21 7.46-4.837-.067-9.706.226-14.495-.268-4.71-.487-10.402.62-12.727-5.57-.06-.154-.26-.248-.387-.38-7.495-7.72-15.042-15.39-22.457-23.19-3.13-3.293-6.238-6.66-7.308-11.366-.215-.956-1.084-1.982-1.938-2.536-3.96-2.584-7.9-5.225-12.066-7.437-3.932-2.084-8.115-3.706-12.224-5.454-2.848-1.213-3.476-3.587-1.34-5.48.573-.51 1.035-1.015 1.415-1.514.184-.352.42-.64.545-.83 1.36-2.473.25-4.72-3.342-6.296-2.797-1.227-5.712-2.192-8.587-3.242-2-.733-3.5-1.745-3.685-4.187-.283-3.71-1.35-4.405-5.012-5.28-1.894-.454-3.687-1.723-5.275-2.946-1.348-1.038-2.34-2.542-3.48-3.85-.803-.922-1.612-1.648-2.58-1.788-.682-.103-4.062-1.967-7.254-2.732-5.18-1.24-10.25.867-14.738 3.3-3.463 1.873-5.443 5.163-5.22 9.52.326 6.31 3.373 12.373 1.567 18.895-.418 1.512.582 2.472 2.3 1.888 2.076-.705 2.797.377 3.665 2.1 1.245 2.464 2.845 4.795 4.584 6.937 1.3 1.597 2.833 1.353 4.508-.062 1.088-.924 2.856-1.664 4.205-1.508 2.108.24 3.277 1.82 3.646 4.16.526 3.32 1.023 6.78 2.422 9.767 1.558 3.34 1.93 6.49 1.504 10.048-.283 2.35.323 4.793.34 7.196 0 .88-.374 1.888-.886 2.622-1.902 2.723-1.248 7.435 1.053 9.803.778.798 1.275 2.944.767 3.753-4.17 6.59-8.044 13.437-15.98 16.616-1.552.624-2.392 3.597-3.004 5.65-.212.708 1.04 2.37 1.99 2.827 4.578 2.2 7.253 1.22 9.538-3.38 1.79-3.6 4.068-6.18 8.4-6.97 3.696-.676 7.924-.57 10.42-4.51 1.248-1.98 3.265-2.604 5.485-1.29 2.716 1.62 3.668 3.767 2.437 6.446-.813 1.784-2.003 3.49-3.37 4.89-4.193 4.303-8.748 8.264-12.796 12.692-.502.553-1.133 1.292-1.828 2.133-.428.514-.85 1.03-1.264 1.56-3.804 4.755-8.758 11.506-9.176 12.818-.107.254-.218.502-.306.78-2.378.005-4.755.09-7.134.18-1.848.074-3.69.148-5.538.173-1.02.012-2.488-.1-2.994-.748-1.345-1.71-2.275-3.75-3.62-6.09 1.987.205 3.62.374 5.257.546.144-.403.33-.662.304-.896-2.314-5.928-2.91-15.54-6.76-19.442-.234-.227-.31-.657-.402-1.008-1.064-4.144-2.103-8.29-3.176-12.425-1.042-4.013-2.7-7.438-7.032-9.058-1.322-.49-2.655-2.012-3.17-3.37-.75-1.997-.96-4.256-1.057-6.422-.122-2.67-1.23-4.758-3.58-5.685-6.13-2.418-8.373-8.107-11.457-13.085-.847-1.363-.47-2.855 1.385-3.06 2.25-.25 4.606-.523 6.775-.084 1.607.322 3.204 1.54 4.428 2.75 2.255 2.218 4.062 4.904 6.366 7.064 3.515 3.303 7.366 6.26 10.93 9.52.907.837 1.74 2.25 1.79 3.435.117 2.765 1.59 4.54 3.43 6.263 3.472 3.25 7.755 1.73 11.72 1.94.562.033 1.552-1.275 1.735-2.1.79-3.563-1.3-7.392-4.702-8.928-1.332-.6-2.667-1.267-4.075-1.585-2.125-.477-3.24-1.824-4.028-3.695-4.51-10.722-10.848-20.232-19.218-28.305-1.294-1.247-3.19-2.162-4.957-2.583-8.34-1.334-17.647-3.904-25.894-5.81-1.244-.29-2.316-1.3-3.49-1.946" fill="#000"/></g></svg>
